<svg width="131" height="24" viewBox="0 0 131 24" fill="none" xmlns="http://www.w3.org/2000/svg">
<path d="M11.5 0.27832L14.0819 8.22462H22.4371L15.6776 13.1357L18.2595 21.082L11.5 16.1709L4.74047 21.082L7.32238 13.1357L0.56285 8.22462H8.91809L11.5 0.27832Z" fill="#FFE815"/>
<path d="M38.5 0.27832L41.0819 8.22462H49.4371L42.6776 13.1357L45.2595 21.082L38.5 16.1709L31.7405 21.082L34.3224 13.1357L27.5628 8.22462H35.9181L38.5 0.27832Z" fill="#FFE815"/>
<path d="M65.5 0.27832L68.0819 8.22462H76.4371L69.6776 13.1357L72.2595 21.082L65.5 16.1709L58.7405 21.082L61.3224 13.1357L54.5628 8.22462H62.9181L65.5 0.27832Z" fill="#FFE815"/>
<path d="M92.5 0.27832L95.0819 8.22462H103.437L96.6776 13.1357L99.2595 21.082L92.5 16.1709L85.7405 21.082L88.3224 13.1357L81.5628 8.22462H89.9181L92.5 0.27832Z" fill="#FFE815"/>
<path d="M119.5 0.27832L122.082 8.22462H130.437L123.678 13.1357L126.26 21.082L119.5 16.1709L112.74 21.082L115.322 13.1357L108.563 8.22462H116.918L119.5 0.27832Z" fill="#FFE815"/>
</svg>
